<?xml version="1.0" encoding="utf-8"?>
<!-- Generator: Adobe Illustrator 24.0.0, SVG Export Plug-In . SVG Version: 6.00 Build 0)  -->
<svg version="1.1" id="Layer_1" xmlns="http://www.w3.org/2000/svg" xmlns:xlink="http://www.w3.org/1999/xlink" x="0px" y="0px"
	 viewBox="0 0 327.9 104.6" style="enable-background:new 0 0 327.9 104.6;" xml:space="preserve">
<style type="text/css">
	.st0{display:none;}
	.st1{display:inline;}
	.st2{fill:#FFFFFF;}
	.st3{fill:url(#SVGID_1_);}
	.st4{fill:url(#SVGID_2_);}
	.st5{fill:url(#SVGID_3_);}
	.st6{fill:url(#SVGID_4_);}
	.st7{fill:url(#SVGID_5_);}
	.st8{fill:url(#SVGID_6_);}
	.st9{fill:url(#SVGID_7_);}
	.st10{fill:url(#SVGID_8_);}
	.st11{fill:url(#SVGID_9_);}
	.st12{fill:url(#SVGID_10_);}
</style>
<title>logo-white</title>
<g class="st0">
	<g class="st1">
		<path class="st2" d="M154.8,28.2l13.4,37l13.4-37H193l-19.5,49h-11.4l-19.3-49C142.8,28.2,154.8,28.2,154.8,28.2z"/>
		<path class="st2" d="M209.5,28.2v49h-11.1v-49C198.4,28.2,209.5,28.2,209.5,28.2z"/>
		<path class="st2" d="M257.6,28.2v9.2h-26.3V48H255v9.2h-23.6V68h27v9.2h-38.1v-49C220.3,28.2,257.6,28.2,257.6,28.2z"/>
		<path class="st2" d="M277.2,28.2L301,59.7V28.2h10.5v49h-10.1l-23.7-31.4v31.4h-10.6v-49C267.1,28.2,277.2,28.2,277.2,28.2z"/>
	</g>
</g>
<g>
	
		<linearGradient id="SVGID_1_" gradientUnits="userSpaceOnUse" x1="10.6267" y1="87.8679" x2="65.2958" y2="15.3197" gradientTransform="matrix(1 0 0 -1 0 106)">
		<stop  offset="0" style="stop-color:#00365A"/>
		<stop  offset="0.25" style="stop-color:#00365A"/>
		<stop  offset="0.5706" style="stop-color:#054E80"/>
		<stop  offset="0.7346" style="stop-color:#075B93"/>
		<stop  offset="0.8391" style="stop-color:#054E80"/>
		<stop  offset="1" style="stop-color:#054E80"/>
	</linearGradient>
	<path class="st3" d="M47.1,79.6l7.4,13.8C60.3,89.8,66,86,71.6,82l-23.2-4.3C47,77.5,46.4,78.3,47.1,79.6z"/>
	
		<linearGradient id="SVGID_2_" gradientUnits="userSpaceOnUse" x1="-8.6789" y1="70.3761" x2="43.7354" y2="0.8201" gradientTransform="matrix(1 0 0 -1 0 106)">
		<stop  offset="0" style="stop-color:#00365A"/>
		<stop  offset="0.25" style="stop-color:#00365A"/>
		<stop  offset="0.5706" style="stop-color:#054E80"/>
		<stop  offset="0.7346" style="stop-color:#075B93"/>
		<stop  offset="0.8391" style="stop-color:#054E80"/>
		<stop  offset="1" style="stop-color:#054E80"/>
	</linearGradient>
	<path class="st4" d="M38.9,76c-0.3-0.1-1.4,0.6-2.6,1.4l-16.1,12c-1.6,12.2,8.5,19.1,22.1,11.1c2.6-1.4,5.2-2.9,7.7-4.4l-9.4-17.7
		C39.9,77.1,39.1,76.1,38.9,76z"/>
	
		<linearGradient id="SVGID_3_" gradientUnits="userSpaceOnUse" x1="48.7908" y1="107.9476" x2="99.9676" y2="40.0337" gradientTransform="matrix(1 0 0 -1 0 106)">
		<stop  offset="0" style="stop-color:#00365A"/>
		<stop  offset="0.25" style="stop-color:#00365A"/>
		<stop  offset="0.5706" style="stop-color:#054E80"/>
		<stop  offset="0.7346" style="stop-color:#075B93"/>
		<stop  offset="0.8391" style="stop-color:#054E80"/>
		<stop  offset="1" style="stop-color:#054E80"/>
	</linearGradient>
	<path class="st5" d="M84.9,41.4l-9.5,7c-1.1,0.8-1.3,2.4-0.2,3.4l15.9,15.9c10-7.4,11.3-17.5,4.8-25.9l-6.4-1.4
		C88.1,40.1,86,40.5,84.9,41.4z"/>
	
		<linearGradient id="SVGID_4_" gradientUnits="userSpaceOnUse" x1="23.4101" y1="91.5631" x2="75.4383" y2="22.5194" gradientTransform="matrix(1 0 0 -1 0 106)">
		<stop  offset="0" style="stop-color:#00365A"/>
		<stop  offset="0.25" style="stop-color:#00365A"/>
		<stop  offset="0.5706" style="stop-color:#054E80"/>
		<stop  offset="0.7346" style="stop-color:#075B93"/>
		<stop  offset="0.8391" style="stop-color:#054E80"/>
		<stop  offset="1" style="stop-color:#054E80"/>
	</linearGradient>
	<path class="st6" d="M71,54.9c-1-1-2.8-1.1-3.9-0.3l-21,15.6c-1.1,0.8-0.9,1.8,0.5,2l30.9,5.7c3.2-2.3,6.3-4.7,9.4-7.1L71,54.9z"/>
	
		<linearGradient id="SVGID_5_" gradientUnits="userSpaceOnUse" x1="41.309" y1="105.4823" x2="94.3798" y2="35.055" gradientTransform="matrix(1 0 0 -1 0 106)">
		<stop  offset="0" style="stop-color:#00365A"/>
		<stop  offset="0.25" style="stop-color:#00365A"/>
		<stop  offset="0.5706" style="stop-color:#054E80"/>
		<stop  offset="0.7346" style="stop-color:#075B93"/>
		<stop  offset="0.8391" style="stop-color:#054E80"/>
		<stop  offset="1" style="stop-color:#054E80"/>
	</linearGradient>
	<path class="st7" d="M77.7,37.8l-18.5-4c-1.4-0.3-1.7,0.3-0.7,1.3l9.3,9.3c1,1,2.8,1.1,3.9,0.3l6.4-4.8
		C79.3,39.1,79.1,38.1,77.7,37.8z"/>
	
		<linearGradient id="SVGID_6_" gradientUnits="userSpaceOnUse" x1="24.0923" y1="92.4758" x2="76.6165" y2="22.7738" gradientTransform="matrix(1 0 0 -1 0 106)">
		<stop  offset="0" style="stop-color:#00365A"/>
		<stop  offset="0.25" style="stop-color:#00365A"/>
		<stop  offset="0.5706" style="stop-color:#054E80"/>
		<stop  offset="0.7346" style="stop-color:#075B93"/>
		<stop  offset="0.8391" style="stop-color:#054E80"/>
		<stop  offset="1" style="stop-color:#054E80"/>
	</linearGradient>
	<path class="st8" d="M41.3,25.2L21.8,5.7c-2.4,4-2.5,10,0.6,16.8l18.1,3.9C42,26.8,42.3,26.2,41.3,25.2z"/>
	
		<linearGradient id="SVGID_7_" gradientUnits="userSpaceOnUse" x1="2.3798" y1="77.3114" x2="54.0227" y2="8.779" gradientTransform="matrix(1 0 0 -1 0 106)">
		<stop  offset="0" style="stop-color:#00365A"/>
		<stop  offset="0.25" style="stop-color:#00365A"/>
		<stop  offset="0.5706" style="stop-color:#054E80"/>
		<stop  offset="0.7346" style="stop-color:#075B93"/>
		<stop  offset="0.8391" style="stop-color:#054E80"/>
		<stop  offset="1" style="stop-color:#054E80"/>
	</linearGradient>
	<path class="st9" d="M35.1,68l-8.5-16c0,5.4-0.4,10.9-1.1,16.2l8.3,1.5C35.1,70.1,35.7,69.2,35.1,68z"/>
	
		<linearGradient id="SVGID_8_" gradientUnits="userSpaceOnUse" x1="42.6886" y1="105.9476" x2="96.1856" y2="34.9546" gradientTransform="matrix(1 0 0 -1 0 106)">
		<stop  offset="0" style="stop-color:#00365A"/>
		<stop  offset="0.25" style="stop-color:#00365A"/>
		<stop  offset="0.5706" style="stop-color:#054E80"/>
		<stop  offset="0.7346" style="stop-color:#075B93"/>
		<stop  offset="0.8391" style="stop-color:#054E80"/>
		<stop  offset="1" style="stop-color:#054E80"/>
	</linearGradient>
	<path class="st10" d="M55,29.6l26.2,5.7c1.4,0.3,3.5-0.1,4.6-1l0.9-0.7C72.4,22.7,58.1,12.8,42.3,4.1c-6.8-4-12.8-4.2-16.8-2
		l25.1,25.1C51.6,28.2,53.6,29.3,55,29.6z"/>
	
		<linearGradient id="SVGID_9_" gradientUnits="userSpaceOnUse" x1="-5.1625" y1="69.9162" x2="44.4506" y2="4.0774" gradientTransform="matrix(1 0 0 -1 0 106)">
		<stop  offset="0" style="stop-color:#00365A"/>
		<stop  offset="0.25" style="stop-color:#00365A"/>
		<stop  offset="0.5706" style="stop-color:#054E80"/>
		<stop  offset="0.7346" style="stop-color:#075B93"/>
		<stop  offset="0.8391" style="stop-color:#054E80"/>
		<stop  offset="1" style="stop-color:#054E80"/>
	</linearGradient>
	<path class="st11" d="M28.9,74.2l-4.3-0.8c-0.5,2.6-1.1,5.2-1.8,7.8l6.6-4.9C30.5,75.3,30.3,74.4,28.9,74.2z"/>
	
		<linearGradient id="SVGID_10_" gradientUnits="userSpaceOnUse" x1="20.635" y1="90.5671" x2="72.4898" y2="21.7534" gradientTransform="matrix(1 0 0 -1 0 106)">
		<stop  offset="0" style="stop-color:#00365A"/>
		<stop  offset="0.25" style="stop-color:#00365A"/>
		<stop  offset="0.5706" style="stop-color:#054E80"/>
		<stop  offset="0.7346" style="stop-color:#075B93"/>
		<stop  offset="0.8391" style="stop-color:#054E80"/>
		<stop  offset="1" style="stop-color:#054E80"/>
	</linearGradient>
	<path class="st12" d="M39.5,65.4c0.7,1.3,2.1,1.6,3.3,0.7l20.5-15.3c1.1-0.8,1.3-2.4,0.2-3.4L49.2,33.1c-1-1-3-2.1-4.4-2.4
		l-21.4-4.6c1.1,4.4,1.9,9,2.4,13.6L39.5,65.4z"/>
</g>
<g>
	<path class="st2" d="M156,31.3l7.7,21.2c1.5,4.3,7.6,4.3,9.1,0l7.7-21.2c0.7-1.9,2.5-3.2,4.6-3.2h0.8c3.4,0,5.8,3.5,4.5,6.7
		l-15.6,39.3c-0.7,1.9-2.5,3.1-4.5,3.1h-4.8c-2,0-3.8-1.2-4.5-3.1l-15.5-39.3c-1.3-3.2,1.1-6.6,4.5-6.6h1.4
		C153.4,28.1,155.3,29.4,156,31.3z"/>
	<path class="st2" d="M209.5,33v39.3c0,2.7-2.2,4.9-4.9,4.9h-1.4c-2.7,0-4.9-2.2-4.9-4.9V33c0-2.7,2.2-4.9,4.9-4.9h1.4
		C207.3,28.1,209.5,30.3,209.5,33z"/>
	<path class="st2" d="M226.4,28.1c2.7,0,4.9,2.2,4.9,4.9v4.3V43c0,2.7,2.2,4.9,4.9,4.9h6.4c2.7,0,4.9-2.2,4.9-4.9V33
		c0-2.7,2.2-4.9,4.9-4.9h1.3c2.7,0,4.9,2.2,4.9,4.9v39.3c0,2.7-2.2,4.9-4.9,4.9h-1.3c-2.7,0-4.9-2.2-4.9-4.9V62
		c0-2.7-2.2-4.9-4.9-4.9h-6.3c-2.7,0-4.9,2.2-4.9,4.9v5.9v4.3c0,2.7-2.2,4.9-4.9,4.9h-1.4c-2.7,0-4.9-2.2-4.9-4.9V33
		c0-2.7,2.2-4.9,4.9-4.9L226.4,28.1z"/>
	<path class="st2" d="M278.2,33v39.3c0,2.7-2.2,4.9-4.9,4.9H272c-2.7,0-4.9-2.2-4.9-4.9V33c0-2.7,2.2-4.9,4.9-4.9h1.4
		C276,28.1,278.2,30.3,278.2,33z"/>
</g>
</svg>
